<svg width="64" height="64" viewBox="0 0 64 64" fill="none" xmlns="http://www.w3.org/2000/svg">
<g clip-path="url(#clip0_4112_385)">
<g clip-path="url(#clip1_4112_385)">
<rect width="64" height="64" rx="16" fill="#F5F5F5"/>
<path opacity="0.2" d="M53.2725 43.12C51.3334 46.8292 48.458 49.9668 44.9316 52.2213C41.4052 54.4759 37.3506 55.7691 33.17 55.9725L33.9625 51.8625C34.0215 51.554 34.0069 51.2359 33.9201 50.934C33.8332 50.6322 33.6765 50.355 33.4625 50.125L28.5275 45.0425C28.2615 44.7553 28.0856 44.3964 28.0216 44.0103C27.9576 43.6241 28.0083 43.2276 28.1675 42.87L31.5925 35.185C31.7686 34.7901 32.0679 34.4629 32.4456 34.2524C32.8233 34.0419 33.2591 33.9595 33.6875 34.0175L39.3925 34.7875C39.6689 34.8254 39.9344 34.9198 40.1725 35.065L53.2725 43.12ZM29.1775 23.75L32.25 22.06C32.3856 21.9867 32.5116 21.8968 32.625 21.7925L39.3525 15.71C39.6874 15.4054 39.909 14.9963 39.9812 14.5495C40.0534 14.1026 39.9719 13.6445 39.75 13.25L37.125 8.5475C35.4411 8.18274 33.723 7.9992 32 8C26.5218 7.99164 21.2069 9.86536 16.945 13.3075L14 20.27C13.8011 20.7413 13.7904 21.271 13.97 21.75L16.845 29.4175C16.9632 29.7308 17.158 30.0094 17.4118 30.2278C17.6656 30.4462 17.9701 30.5974 18.2975 30.6675L18.97 30.8125L22.3 25C22.4758 24.6955 22.7288 24.4428 23.0334 24.2672C23.338 24.0917 23.6835 23.9995 24.035 24H28.2125C28.5503 24.0006 28.8825 23.9145 29.1775 23.75Z" fill="#EF5F4C"/>
<path d="M32 6C26.8577 6 21.8309 7.52487 17.5552 10.3818C13.2795 13.2387 9.94702 17.2994 7.97914 22.0502C6.01127 26.8011 5.49638 32.0288 6.49959 37.0723C7.50281 42.1159 9.97907 46.7486 13.6152 50.3848C17.2514 54.0209 21.8842 56.4972 26.9277 57.5004C31.9712 58.5036 37.1989 57.9887 41.9498 56.0209C46.7007 54.053 50.7613 50.7205 53.6182 46.4448C56.4751 42.1691 58 37.1423 58 32C57.9927 25.1066 55.2511 18.4976 50.3767 13.6233C45.5024 8.74889 38.8934 6.00728 32 6ZM54 32C54.0022 34.8224 53.4589 37.6187 52.4 40.235L41.225 33.3625C40.7499 33.0693 40.2184 32.8794 39.665 32.805L33.96 32.035C33.1739 31.9325 32.375 32.0643 31.6635 32.4138C30.9519 32.7634 30.3593 33.3151 29.96 34H27.78L26.83 32.035C26.5674 31.4878 26.183 31.0081 25.7064 30.6324C25.2297 30.2567 24.6734 29.995 24.08 29.8675L22.08 29.435L24.035 26H28.2125C28.8885 25.9987 29.5532 25.8267 30.145 25.5L33.2075 23.81C33.4766 23.66 33.7281 23.4806 33.9575 23.275L40.685 17.19C41.3595 16.5855 41.8078 15.7692 41.956 14.8757C42.1041 13.9822 41.9433 13.0648 41.5 12.275L41.41 12.1125C45.1745 13.8975 48.3556 16.7135 50.5841 20.2336C52.8125 23.7538 53.997 27.8338 54 32ZM35.8275 10.335L38 14.225L31.2725 20.31L28.2125 22H24.035C23.3319 21.999 22.6409 22.1833 22.0317 22.5344C21.4225 22.8855 20.9166 23.3911 20.565 24L18.3825 27.8075L15.845 21.0475L18.58 14.58C21.0009 12.7095 23.7857 11.3652 26.7562 10.6334C29.7267 9.90153 32.8173 9.79819 35.83 10.33L35.8275 10.335ZM10 32C9.99667 28.73 10.7262 25.5009 12.135 22.55L14.97 30.1175C15.2063 30.7441 15.596 31.3013 16.1036 31.7381C16.6112 32.1749 17.2202 32.4773 17.875 32.6175L23.2325 33.77L24.185 35.75C24.5156 36.4234 25.0279 36.991 25.664 37.3886C26.3002 37.7862 27.0348 37.998 27.785 38H28.155L26.3475 42.0575C26.029 42.7719 25.927 43.5641 26.0541 44.3359C26.1812 45.1077 26.5318 45.8254 27.0625 46.4L27.0975 46.435L32 51.485L31.515 53.985C25.7696 53.8513 20.3039 51.4775 16.2843 47.3701C12.2647 43.2627 10.0095 37.747 10 32ZM35.645 53.695L35.9275 52.2425C36.0436 51.6254 36.0136 50.9897 35.84 50.3863C35.6664 49.7829 35.3539 49.2285 34.9275 48.7675C34.9152 48.7565 34.9035 48.7448 34.8925 48.7325L30 43.685L33.425 36L39.13 36.77L50.56 43.8C48.9041 46.4006 46.721 48.6249 44.1519 50.3293C41.5828 52.0337 38.6848 53.1803 35.645 53.695Z" fill="#EF5F4C"/>
</g>
</g>
<defs>
<clipPath id="clip0_4112_385">
<rect width="64" height="64" fill="white"/>
</clipPath>
<clipPath id="clip1_4112_385">
<rect width="64" height="64" rx="16" fill="white"/>
</clipPath>
</defs>
</svg>
